<?xml version="1.0" encoding="utf-8"?>
<!-- Generator: Adobe Illustrator 25.2.3, SVG Export Plug-In . SVG Version: 6.00 Build 0)  -->
<svg version="1.1" id="Layer_1" xmlns="http://www.w3.org/2000/svg" xmlns:xlink="http://www.w3.org/1999/xlink" x="0px" y="0px"
	 viewBox="0 0 300 300" style="enable-background:new 0 0 300 300;" xml:space="preserve">
<style type="text/css">
	@-moz-keyframes spin { 100% { -moz-transform: rotate(360deg); } }
	@-webkit-keyframes spin { 100% { -webkit-transform: rotate(360deg); } }
	@keyframes spin { 100% { -webkit-transform: rotate(360deg); transform:rotate(360deg); } }

	@-moz-keyframes spin-rev { 100% { -moz-transform: rotate(-360deg); } }
	@-webkit-keyframes spin-rev { 100% { -webkit-transform: rotate(-360deg); } }
	@keyframes spin-rev { 100% { -webkit-transform: rotate(-360deg); transform:rotate(-360deg); } }

	.circle1 {
		-webkit-animation:spin 6s linear infinite;
    	-moz-animation:spin 6s linear infinite;
    	animation:spin 6s linear infinite;
		transform-origin: center;
		fill:#FFFFFF;
		transform-origin: center;
		}
	.circle2 {
		-webkit-animation:spin-rev 8s linear infinite;
    	-moz-animation:spin-rev 8s linear infinite;
    	animation:spin-rev 8s linear infinite;
		transform-origin: center;
		fill:#FFFFFF;
		transform-origin: center;
		}
	.circle3 {
		-webkit-animation:spin-rev 5s linear infinite;
    	-moz-animation:spin-rev 5s linear infinite;
    	animation:spin-rev 5s linear infinite;
		transform-origin: center;
		fill:#FFFFFF;
		transform-origin: center;
		}
</style>
<g>
	<path class="circle1" d="M149.7,16.5c43.3,0,86.1,20.4,109,51.9c17.3,23.9,19.7,54.5,19.7,81.3c0,40.7-20.8,61.8-50.3,87.1
		c-3.3,2.9-6.6,5.9-10.2,9c-19.2,17.4-41.1,37-68.3,37c-34.5,0-61.4-13.5-89.9-45.2c-13.3-14.7-22.7-27.5-29.7-40.1
		c-9.2-16.6-13.6-32.3-13.6-47.9c0-16.3,4.9-31.9,15-47.5c8.8-13.6,20.1-25.4,33-38.5C90.9,37,114,16.5,149.7,16.5 M149.7,15.6
		c-37.3,0-61.5,22.9-85.8,47.5C39.9,87.3,15.6,113,15.6,149.7c0,34.5,22.1,64.8,43.5,88.6c24.5,27.2,51,45.5,90.6,45.5
		c32.4,0,56.8-27.2,79-46.3c28.6-24.6,50.6-46.1,50.6-87.8c0-30.6-3.5-59.2-19.8-81.8C236.2,35.9,193.1,15.6,149.7,15.6L149.7,15.6z
		"/>
</g>
<g>
	<path class="circle2" d="M147.8,30.7c1.5,0,3.1,0,4.6,0.1c32,1.2,62.2,15,85.2,38.9c22.9,23.8,35.8,54.7,36.5,87.1
		c0.6,32.2-11.1,62.2-32.9,84.5c-21.3,21.7-49.9,33.6-80.7,33.6c-0.5,0-1,0-1.5,0c-66.4-0.8-122.4-56.6-124.7-124.2
		C33.2,118,44.7,87.5,66.5,64.9C87.8,42.9,116.7,30.7,147.8,30.7L147.8,30.7 M147.8,29.9c-65.5,0-116.6,53.4-114.3,120.8
		c2.3,68.5,58.9,124.2,125.5,125.1c0.5,0,1,0,1.5,0c65,0,115.7-52.7,114.4-118.9C273.7,89.6,219.2,32.5,152.5,30
		C150.9,29.9,149.4,29.9,147.8,29.9L147.8,29.9z"/>
</g>
<g>
	<path class="circle3" d="M158.5,40.2c16.1,0,29.6,1.5,41.3,4.7c14.8,4,26.9,10.6,36.1,19.9c17.7,17.7,26.9,45.7,27.3,83.3
		c0.3,30.8-11.7,60-33.9,82.2c-20.9,20.9-47.5,24.9-73.1,26.2c-3.5,0.2-7,0.3-10.3,0.3c-15.1,0-28.1-1.8-39.7-5.6
		c-13.7-4.5-25.2-11.5-35.2-21.4c-10.3-10.3-18.1-22.4-23.3-35.9c-4.7-12.3-7.2-25.9-7.5-40.3c-0.3-16.1,1.6-30.9,5.7-44.1
		C50.7,93.9,58.5,80.6,69.1,70c18.7-18.7,45.8-28.7,80.6-29.7C152.8,40.2,155.7,40.2,158.5,40.2L158.5,40.2 M158.5,39.4
		c-3,0-5.9,0.1-8.8,0.1c-28.4,0.9-59.1,7.9-81.1,29.9c-23,23-29.7,54.8-29.1,84c0.5,27.6,9.2,55,31,76.7
		c21.3,21.3,48.2,27.3,75.4,27.3c3.4,0,6.9-0.1,10.3-0.3c26.6-1.3,52.8-5.7,73.6-26.5c23-23,34.4-52.9,34.1-82.7
		c-0.3-28.3-5.7-62-27.5-83.9C216,43.7,185.7,39.4,158.5,39.4L158.5,39.4z"/>
</g>
</svg>
