<?xml version="1.0" encoding="utf-8"?>
<!-- Generator: Adobe Illustrator 25.2.3, SVG Export Plug-In . SVG Version: 6.00 Build 0)  -->
<svg version="1.1" id="Layer_1" xmlns="http://www.w3.org/2000/svg" xmlns:xlink="http://www.w3.org/1999/xlink" x="0px" y="0px"
	 viewBox="0 0 60 60" style="enable-background:new 0 0 60 60;" xml:space="preserve">
<style type="text/css">
	.st0{fill:rgba(255,255,255,0.6);}
</style>
<g>
	<path class="st0" d="M53.1,9.7c-3.4-2.5-7.3-3.1-11.4-2c-3.6,1-6.2,3.2-8,6.4c0,0-0.2,0.2-0.2,0.2c-0.7,2.5-1.2,3.9-1.7,6.5
		c-0.1,0.3,0.1,0.6,0.4,0.6c2.5,0.2,3.5,0.3,6.1,0.6c0.4,0,0.5,0.4,0.4,0.7c-1.9,4.1-2.3,4.4-4.3,8.9c-0.1,0.3,0,0.6,0.3,0.7
		c3.3,1.5,5.6,2.4,8.3,3.8c0.3,0.2,0.5,0.5,0.3,0.7c-2.2,3.6-5.7,8.2-7.4,11.6c1,0.5,2.1,1,3.1,1.5c0.4,0.2,0.7,0.1,1-0.2
		c4.5-4.5,8.7-9.3,12.3-14.6c2.2-3.2,4.1-6.6,5.3-10.3c0.6-1.9,1-3.8,0.9-5.8C58.2,15.2,56.4,12,53.1,9.7z"/>
	<path class="st0" d="M31.7,41.2c-3.2-0.3-5-0.2-8.5-0.6c-0.3,0-0.5-0.4-0.4-0.7c2-4.7,3-7,4.8-11.2c0.1-0.3-0.1-0.7-0.5-0.7
		c-2.9-0.2-4.7-0.2-7.5-0.5c-0.3,0-0.5-0.2-0.5-0.5c0.2-2.6,0.5-5.2,1-7.8c-1.4-0.7-3-1.1-4.6-1.3c-4-0.3-7.4,0-10.5,2.5
		c-2.6,2.2-3.8,5-4,8.3c0,1.8,0.2,3.4,0.8,5.1c0.6,2.2,1.9,4,3.3,5.7c2.5,2.7,5.5,4.7,8.6,6.4c5,2.8,10.2,4.9,15.5,6.7
		c1.2-3.5,2.1-6.8,2.9-10.9C32.2,41.6,32,41.3,31.7,41.2z"/>
</g>
</svg>
