<?xml version="1.0" encoding="utf-8"?>
<!-- Generator: Adobe Illustrator 25.2.3, SVG Export Plug-In . SVG Version: 6.00 Build 0)  -->
<svg version="1.1" id="Layer_1" xmlns="http://www.w3.org/2000/svg" xmlns:xlink="http://www.w3.org/1999/xlink" x="0px" y="0px"
	 viewBox="0 0 1000 720" style="enable-background:new 0 0 1000 720;" xml:space="preserve">
<style type="text/css">
	.st0{fill:#646464;}
	.st1{opacity:0.5;}
</style>
<g>
	<path class="st0" d="M120.8,502.4V230c0-6.4,4.4-9.6,13.2-9.6s13.2,3.2,13.2,9.6v119.6h115.6V230c0-6.4,4.4-9.6,13.2-9.6
		c8.8,0,13.2,3.2,13.2,9.6v272.4c0,3.2-1.3,5.7-4,7.6s-5.7,2.8-9.2,2.8c-3.7,0-6.9-0.9-9.4-2.8s-3.8-4.4-3.8-7.6v-130H147.2v130
		c0,3.2-1.3,5.7-4,7.6s-5.7,2.8-9.2,2.8c-3.7,0-6.9-0.9-9.4-2.8C122.1,508.2,120.8,505.6,120.8,502.4z"/>
	<path class="st0" d="M328,501.6c0-1.3,0.1-2.3,0.4-2.8L412,227.3c1.9-6.1,7-9.2,15.5-9.2s13.8,3.1,15.9,9.3l83.4,272.2
		c0,0.3,0.1,0.6,0.2,1.1c0.1,0.5,0.2,0.9,0.2,1.1c0,3-1.7,5.7-5.2,7.8c-3.5,2.2-7.1,3.2-10.8,3.2c-5.1,0-8.4-2.3-10-6.8l-18.4-61.6
		H372.3l-18.5,61.7c-1.1,4.5-4.6,6.7-10.5,6.7c-3.8,0-7.2-1.1-10.5-3.2C329.6,507.5,328,504.8,328,501.6z M379.2,421.6H476
		l-48.2-161.5L379.2,421.6z"/>
	<path class="st0" d="M519.2,232.6c0-3.1,0.9-6,2.6-8.5c1.7-2.5,4.2-3.7,7.4-3.7h160.4c3.2,0,5.7,1.2,7.4,3.5
		c1.7,2.4,2.6,5.1,2.6,8.3c0,3.4-0.9,6.4-2.6,8.9c-1.7,2.5-4.2,3.7-7.4,3.7h-66.8v257.6c0,3.2-1.3,5.7-4,7.6s-5.7,2.8-9.2,2.8
		c-3.7,0-6.9-0.9-9.4-2.8s-3.8-4.4-3.8-7.6V244.8h-67.2c-2.9,0-5.3-1.2-7.2-3.5C520.2,238.9,519.2,236.1,519.2,232.6z"/>
	<path class="st0" d="M736,502.4v-272c0-3.2,1.2-5.7,3.6-7.4c2.4-1.7,5.2-2.6,8.4-2.6h142.4c6.7,0,10,3.9,10,11.6
		c0,3.5-0.9,6.5-2.6,9c-1.7,2.5-4.2,3.8-7.4,3.8h-128v110h62.8c3.2,0,5.7,1.1,7.4,3.4c1.7,2.3,2.6,5.1,2.6,8.6
		c0,7.2-3.3,10.8-10,10.8h-62.8v110.8h128c2.9,0,5.3,1.2,7.2,3.6s2.8,5.3,2.8,8.8c0,8-3.3,12-10,12H748c-3.2,0-6-0.9-8.4-2.8
		C737.2,508.2,736,505.6,736,502.4z"/>
</g>
<g class="st1">
	<path class="st0" d="M128.8,212c-1.7,0-3.3-0.4-4.6-1.3c-1.3-0.9-2-2.2-2-3.9v-136c0-1.9,0.7-3.2,2-3.9c1.3-0.7,2.9-1.1,4.6-1.1
		c1.6,0,3,0.4,4.2,1.3c1.2,0.9,2.3,2,3.4,3.3c1.1,1.3,2,2.9,2.8,4.6l54,106.4V70.6c0-1.7,0.7-3,2-3.7c1.3-0.7,2.9-1.1,4.6-1.1
		c1.6,0,3.1,0.4,4.5,1.1c1.4,0.7,2.1,2,2.1,3.7v136.2c0,1.7-0.7,3-2.1,3.9c-1.4,0.9-2.9,1.3-4.5,1.3c-1.9,0-3.5-0.8-5-2.4
		c-1.5-1.6-2.7-3.3-3.8-5.2L135.4,96.2v110.6c0,1.7-0.7,3-2.1,3.9C131.9,211.6,130.4,212,128.8,212z"/>
	<path class="st0" d="M242.8,212c-1.5,0-2.8-0.4-4.1-1.3c-1.3-0.9-1.9-2.2-1.9-3.9v-136c0-1.6,0.6-2.8,1.9-3.7
		c1.3-0.9,2.6-1.3,4.1-1.3H314c1.7,0,3,0.6,3.8,1.9c0.8,1.3,1.2,2.6,1.2,3.9c0,1.7-0.4,3.2-1.3,4.5c-0.9,1.3-2.1,1.9-3.7,1.9h-64v55
		h31.4c1.6,0,2.8,0.6,3.7,1.8c0.9,1.2,1.3,2.6,1.3,4.2c0,1.2-0.4,2.4-1.2,3.6c-0.8,1.2-2.1,1.8-3.8,1.8H250v55.4h64
		c1.6,0,2.8,0.6,3.7,1.8c0.9,1.2,1.3,2.7,1.3,4.4c0,1.5-0.4,2.8-1.2,4.1c-0.8,1.3-2.1,1.9-3.8,1.9H242.8z"/>
	<path class="st0" d="M374.8,213.2c-1.7,0-3.3-0.4-4.8-1.2c-1.5-0.8-2.5-2-3-3.6L327.6,72.8c-0.3-0.5-0.4-1.1-0.4-1.6
		c0-1.1,0.4-2,1.2-2.9c0.8-0.9,1.8-1.5,3-1.9s2.3-0.6,3.4-0.6c1.2,0,2.3,0.3,3.4,0.8c1.1,0.5,1.7,1.4,2,2.6L374.8,192l19.8-74.6
		c0.5-1.7,1.5-2.9,2.8-3.6c1.3-0.7,2.8-1,4.4-1c1.6,0,3,0.3,4.2,1c1.2,0.7,2,1.9,2.4,3.6l20.2,74.6L463,69.2
		c0.4-1.2,1.1-2.1,2.1-2.6c1-0.5,2.1-0.8,3.3-0.8c1.3,0,2.5,0.2,3.6,0.6c1.1,0.4,2,1,2.8,1.9c0.8,0.9,1.2,1.8,1.2,2.9
		c0,0.5-0.1,1.1-0.2,1.6l-39.2,135.6c-0.5,1.6-1.5,2.8-3,3.6c-1.5,0.8-3.1,1.2-5,1.2c-1.7,0-3.4-0.4-4.9-1.2c-1.5-0.8-2.5-2-2.9-3.6
		l-19-70.6l-19,70.6c-0.4,1.6-1.4,2.8-2.9,3.6C378.4,212.8,376.7,213.2,374.8,213.2z"/>
</g>
<g class="st1">
	<path class="st0" d="M399.8,670c-1.7,0-3.3-0.4-4.6-1.3c-1.3-0.9-2-2.2-2-3.9V536.2h-33.6c-1.6,0-2.8-0.6-3.7-1.9
		c-0.9-1.3-1.3-2.7-1.3-4.3s0.4-3,1.3-4.3c0.9-1.3,2.1-1.9,3.7-1.9h80.2c1.7,0,3,0.6,3.8,1.8c0.8,1.2,1.2,2.6,1.2,4.2
		c0,1.6-0.4,3.1-1.2,4.4c-0.8,1.3-2.1,2-3.8,2h-33.4v128.6c0,1.7-0.7,3-2.1,3.9C402.9,669.6,401.4,670,399.8,670z"/>
	<path class="st0" d="M499,671.2c-1.7,0-3.3-0.4-4.8-1.2c-1.5-0.8-2.5-2-3-3.6l-39.4-135.6c-0.3-0.5-0.4-1.1-0.4-1.6
		c0-1.1,0.4-2,1.2-2.9c0.8-0.9,1.8-1.5,3-1.9c1.2-0.4,2.3-0.6,3.4-0.6c1.2,0,2.3,0.3,3.4,0.8c1.1,0.5,1.7,1.4,2,2.6L499,650
		l19.8-74.6c0.5-1.7,1.5-2.9,2.8-3.6c1.3-0.7,2.8-1,4.4-1s3,0.3,4.2,1c1.2,0.7,2,1.9,2.4,3.6l20.2,74.6l34.4-122.8
		c0.4-1.2,1.1-2.1,2.1-2.6c1-0.5,2.1-0.8,3.3-0.8c1.3,0,2.5,0.2,3.6,0.6c1.1,0.4,2,1,2.8,1.9c0.8,0.9,1.2,1.8,1.2,2.9
		c0,0.5-0.1,1.1-0.2,1.6l-39.2,135.6c-0.5,1.6-1.5,2.8-3,3.6c-1.5,0.8-3.1,1.2-5,1.2c-1.7,0-3.4-0.4-4.9-1.2c-1.5-0.8-2.5-2-2.9-3.6
		l-19-70.6l-19,70.6c-0.4,1.6-1.4,2.8-2.9,3.6C502.6,670.8,500.9,671.2,499,671.2z"/>
	<path class="st0" d="M625.4,670c-1.5,0-2.8-0.4-4.1-1.3c-1.3-0.9-1.9-2.2-1.9-3.9v-136c0-1.6,0.6-2.8,1.9-3.7
		c1.3-0.9,2.6-1.3,4.1-1.3h71.2c1.7,0,3,0.6,3.8,1.9c0.8,1.3,1.2,2.6,1.2,3.9c0,1.7-0.4,3.2-1.3,4.5c-0.9,1.3-2.1,1.9-3.7,1.9h-64
		v55H664c1.6,0,2.8,0.6,3.7,1.8c0.9,1.2,1.3,2.6,1.3,4.2c0,1.2-0.4,2.4-1.2,3.6c-0.8,1.2-2.1,1.8-3.8,1.8h-31.4v55.4h64
		c1.6,0,2.8,0.6,3.7,1.8c0.9,1.2,1.3,2.7,1.3,4.4c0,1.5-0.4,2.8-1.2,4.1c-0.8,1.3-2.1,1.9-3.8,1.9H625.4z"/>
	<path class="st0" d="M727,670c-1.5,0-2.8-0.4-4.1-1.3c-1.3-0.9-1.9-2.2-1.9-3.9v-136c0-1.6,0.6-2.8,1.9-3.7
		c1.3-0.9,2.6-1.3,4.1-1.3h71.2c1.7,0,3,0.6,3.8,1.9c0.8,1.3,1.2,2.6,1.2,3.9c0,1.7-0.4,3.2-1.3,4.5c-0.9,1.3-2.1,1.9-3.7,1.9h-64
		v55h31.4c1.6,0,2.8,0.6,3.7,1.8c0.9,1.2,1.3,2.6,1.3,4.2c0,1.2-0.4,2.4-1.2,3.6c-0.8,1.2-2.1,1.8-3.8,1.8h-31.4v55.4h64
		c1.6,0,2.8,0.6,3.7,1.8c0.9,1.2,1.3,2.7,1.3,4.4c0,1.5-0.4,2.8-1.2,4.1c-0.8,1.3-2.1,1.9-3.8,1.9H727z"/>
	<path class="st0" d="M855.2,670c-1.7,0-3.3-0.4-4.6-1.3c-1.3-0.9-2-2.2-2-3.9V536.2H815c-1.6,0-2.8-0.6-3.7-1.9
		c-0.9-1.3-1.3-2.7-1.3-4.3s0.4-3,1.3-4.3c0.9-1.3,2.1-1.9,3.7-1.9h80.2c1.7,0,3,0.6,3.8,1.8c0.8,1.2,1.2,2.6,1.2,4.2
		c0,1.6-0.4,3.1-1.2,4.4c-0.8,1.3-2.1,2-3.8,2h-33.4v128.6c0,1.7-0.7,3-2.1,3.9C858.3,669.6,856.8,670,855.2,670z"/>
</g>
</svg>
