<?xml version="1.0" encoding="utf-8"?>
<!-- Generator: Adobe Illustrator 25.2.3, SVG Export Plug-In . SVG Version: 6.00 Build 0)  -->
<svg version="1.1" id="Layer_1" xmlns="http://www.w3.org/2000/svg" xmlns:xlink="http://www.w3.org/1999/xlink" x="0px" y="0px"
	 viewBox="0 0 1000 720" style="enable-background:new 0 0 1000 720;" xml:space="preserve">
<style type="text/css">
	.st0{fill:#DC6464;}
	.st1{opacity:0.5;}
</style>
<g>
	<path class="st0" d="M121,502.4V230c0-6.4,4.4-9.6,13.2-9.6s13.2,3.2,13.2,9.6v258.4h114c5.9,0,8.8,4,8.8,12
		c0,8.3-2.9,12.4-8.8,12.4H133c-3.2,0-6-0.9-8.4-2.8C122.2,508.2,121,505.6,121,502.4z"/>
	<path class="st0" d="M296.6,429.6v-124c0-29.3,7.5-50.9,22.6-64.6c15.1-13.7,35.3-20.6,60.6-20.6c25.3,0,45.5,6.9,60.6,20.6
		c15.1,13.7,22.6,35.3,22.6,64.6v124c0,29.6-7.5,51.3-22.6,65s-35.3,20.6-60.6,20.6c-25.3,0-45.5-6.9-60.6-20.6
		C304.2,480.9,296.6,459.2,296.6,429.6z M323,429.6c0,40.8,18.9,61.2,56.8,61.2s56.8-20.4,56.8-61.2v-124
		c0-40.5-18.9-60.8-56.8-60.8S323,265.1,323,305.6V429.6z"/>
	<path class="st0" d="M498.2,231.6c0-3.2,1.6-5.9,4.8-8c3.2-2.1,6.7-3.2,10.4-3.2c5.9,0,9.3,2.3,10.4,6.8l74,245.6l73.6-245.6
		c1.6-4.5,4.9-6.8,10-6.8c3.7,0,7.3,1.1,10.8,3.4c3.5,2.2,5.2,4.9,5.2,8.1c0,0.3-0.2,0.7-0.5,1.2s-0.5,0.9-0.5,1.2l-83,271.3
		c-1.9,6.5-7.2,9.7-16,9.7c-8.5,0-13.7-3.2-15.6-9.6l-83.2-271.3C498.4,233.9,498.2,233,498.2,231.6z"/>
	<path class="st0" d="M735.8,502.4v-272c0-3.2,1.2-5.7,3.6-7.4c2.4-1.7,5.2-2.6,8.4-2.6h142.4c6.7,0,10,3.9,10,11.6
		c0,3.5-0.9,6.5-2.6,9c-1.7,2.5-4.2,3.8-7.4,3.8h-128v110H825c3.2,0,5.7,1.1,7.4,3.4c1.7,2.3,2.6,5.1,2.6,8.6
		c0,7.2-3.3,10.8-10,10.8h-62.8v110.8h128c2.9,0,5.3,1.2,7.2,3.6s2.8,5.3,2.8,8.8c0,8-3.3,12-10,12H747.8c-3.2,0-6-0.9-8.4-2.8
		C737,508.2,735.8,505.6,735.8,502.4z"/>
</g>
<g class="st1">
	<path class="st0" d="M128.8,212c-1.7,0-3.3-0.4-4.6-1.3c-1.3-0.9-2-2.2-2-3.9v-136c0-1.9,0.7-3.2,2-3.9c1.3-0.7,2.9-1.1,4.6-1.1
		c1.6,0,3,0.4,4.2,1.3c1.2,0.9,2.3,2,3.4,3.3c1.1,1.3,2,2.9,2.8,4.6l54,106.4V70.6c0-1.7,0.7-3,2-3.7c1.3-0.7,2.9-1.1,4.6-1.1
		c1.6,0,3.1,0.4,4.5,1.1c1.4,0.7,2.1,2,2.1,3.7v136.2c0,1.7-0.7,3-2.1,3.9c-1.4,0.9-2.9,1.3-4.5,1.3c-1.9,0-3.5-0.8-5-2.4
		c-1.5-1.6-2.7-3.3-3.8-5.2L135.4,96.2v110.6c0,1.7-0.7,3-2.1,3.9C131.9,211.6,130.4,212,128.8,212z"/>
	<path class="st0" d="M242.8,212c-1.5,0-2.8-0.4-4.1-1.3c-1.3-0.9-1.9-2.2-1.9-3.9v-136c0-1.6,0.6-2.8,1.9-3.7
		c1.3-0.9,2.6-1.3,4.1-1.3H314c1.7,0,3,0.6,3.8,1.9c0.8,1.3,1.2,2.6,1.2,3.9c0,1.7-0.4,3.2-1.3,4.5c-0.9,1.3-2.1,1.9-3.7,1.9h-64v55
		h31.4c1.6,0,2.8,0.6,3.7,1.8c0.9,1.2,1.3,2.6,1.3,4.2c0,1.2-0.4,2.4-1.2,3.6c-0.8,1.2-2.1,1.8-3.8,1.8H250v55.4h64
		c1.6,0,2.8,0.6,3.7,1.8c0.9,1.2,1.3,2.7,1.3,4.4c0,1.5-0.4,2.8-1.2,4.1c-0.8,1.3-2.1,1.9-3.8,1.9H242.8z"/>
	<path class="st0" d="M374.8,213.2c-1.7,0-3.3-0.4-4.8-1.2c-1.5-0.8-2.5-2-3-3.6L327.6,72.8c-0.3-0.5-0.4-1.1-0.4-1.6
		c0-1.1,0.4-2,1.2-2.9c0.8-0.9,1.8-1.5,3-1.9s2.3-0.6,3.4-0.6c1.2,0,2.3,0.3,3.4,0.8c1.1,0.5,1.7,1.4,2,2.6L374.8,192l19.8-74.6
		c0.5-1.7,1.5-2.9,2.8-3.6c1.3-0.7,2.8-1,4.4-1c1.6,0,3,0.3,4.2,1c1.2,0.7,2,1.9,2.4,3.6l20.2,74.6L463,69.2
		c0.4-1.2,1.1-2.1,2.1-2.6c1-0.5,2.1-0.8,3.3-0.8c1.3,0,2.5,0.2,3.6,0.6c1.1,0.4,2,1,2.8,1.9c0.8,0.9,1.2,1.8,1.2,2.9
		c0,0.5-0.1,1.1-0.2,1.6l-39.2,135.6c-0.5,1.6-1.5,2.8-3,3.6c-1.5,0.8-3.1,1.2-5,1.2c-1.7,0-3.4-0.4-4.9-1.2c-1.5-0.8-2.5-2-2.9-3.6
		l-19-70.6l-19,70.6c-0.4,1.6-1.4,2.8-2.9,3.6C378.4,212.8,376.7,213.2,374.8,213.2z"/>
</g>
<g class="st1">
	<path class="st0" d="M399.8,670c-1.7,0-3.3-0.4-4.6-1.3c-1.3-0.9-2-2.2-2-3.9V536.2h-33.6c-1.6,0-2.8-0.6-3.7-1.9
		c-0.9-1.3-1.3-2.7-1.3-4.3s0.4-3,1.3-4.3c0.9-1.3,2.1-1.9,3.7-1.9h80.2c1.7,0,3,0.6,3.8,1.8c0.8,1.2,1.2,2.6,1.2,4.2
		c0,1.6-0.4,3.1-1.2,4.4c-0.8,1.3-2.1,2-3.8,2h-33.4v128.6c0,1.7-0.7,3-2.1,3.9C402.9,669.6,401.4,670,399.8,670z"/>
	<path class="st0" d="M499,671.2c-1.7,0-3.3-0.4-4.8-1.2c-1.5-0.8-2.5-2-3-3.6l-39.4-135.6c-0.3-0.5-0.4-1.1-0.4-1.6
		c0-1.1,0.4-2,1.2-2.9c0.8-0.9,1.8-1.5,3-1.9c1.2-0.4,2.3-0.6,3.4-0.6c1.2,0,2.3,0.3,3.4,0.8c1.1,0.5,1.7,1.4,2,2.6L499,650
		l19.8-74.6c0.5-1.7,1.5-2.9,2.8-3.6c1.3-0.7,2.8-1,4.4-1s3,0.3,4.2,1c1.2,0.7,2,1.9,2.4,3.6l20.2,74.6l34.4-122.8
		c0.4-1.2,1.1-2.1,2.1-2.6c1-0.5,2.1-0.8,3.3-0.8c1.3,0,2.5,0.2,3.6,0.6c1.1,0.4,2,1,2.8,1.9c0.8,0.9,1.2,1.8,1.2,2.9
		c0,0.5-0.1,1.1-0.2,1.6l-39.2,135.6c-0.5,1.6-1.5,2.8-3,3.6c-1.5,0.8-3.1,1.2-5,1.2c-1.7,0-3.4-0.4-4.9-1.2c-1.5-0.8-2.5-2-2.9-3.6
		l-19-70.6l-19,70.6c-0.4,1.6-1.4,2.8-2.9,3.6C502.6,670.8,500.9,671.2,499,671.2z"/>
	<path class="st0" d="M625.4,670c-1.5,0-2.8-0.4-4.1-1.3c-1.3-0.9-1.9-2.2-1.9-3.9v-136c0-1.6,0.6-2.8,1.9-3.7
		c1.3-0.9,2.6-1.3,4.1-1.3h71.2c1.7,0,3,0.6,3.8,1.9c0.8,1.3,1.2,2.6,1.2,3.9c0,1.7-0.4,3.2-1.3,4.5c-0.9,1.3-2.1,1.9-3.7,1.9h-64
		v55H664c1.6,0,2.8,0.6,3.7,1.8c0.9,1.2,1.3,2.6,1.3,4.2c0,1.2-0.4,2.4-1.2,3.6c-0.8,1.2-2.1,1.8-3.8,1.8h-31.4v55.4h64
		c1.6,0,2.8,0.6,3.7,1.8c0.9,1.2,1.3,2.7,1.3,4.4c0,1.5-0.4,2.8-1.2,4.1c-0.8,1.3-2.1,1.9-3.8,1.9H625.4z"/>
	<path class="st0" d="M727,670c-1.5,0-2.8-0.4-4.1-1.3c-1.3-0.9-1.9-2.2-1.9-3.9v-136c0-1.6,0.6-2.8,1.9-3.7
		c1.3-0.9,2.6-1.3,4.1-1.3h71.2c1.7,0,3,0.6,3.8,1.9c0.8,1.3,1.2,2.6,1.2,3.9c0,1.7-0.4,3.2-1.3,4.5c-0.9,1.3-2.1,1.9-3.7,1.9h-64
		v55h31.4c1.6,0,2.8,0.6,3.7,1.8c0.9,1.2,1.3,2.6,1.3,4.2c0,1.2-0.4,2.4-1.2,3.6c-0.8,1.2-2.1,1.8-3.8,1.8h-31.4v55.4h64
		c1.6,0,2.8,0.6,3.7,1.8c0.9,1.2,1.3,2.7,1.3,4.4c0,1.5-0.4,2.8-1.2,4.1c-0.8,1.3-2.1,1.9-3.8,1.9H727z"/>
	<path class="st0" d="M855.2,670c-1.7,0-3.3-0.4-4.6-1.3c-1.3-0.9-2-2.2-2-3.9V536.2H815c-1.6,0-2.8-0.6-3.7-1.9
		c-0.9-1.3-1.3-2.7-1.3-4.3s0.4-3,1.3-4.3c0.9-1.3,2.1-1.9,3.7-1.9h80.2c1.7,0,3,0.6,3.8,1.8c0.8,1.2,1.2,2.6,1.2,4.2
		c0,1.6-0.4,3.1-1.2,4.4c-0.8,1.3-2.1,2-3.8,2h-33.4v128.6c0,1.7-0.7,3-2.1,3.9C858.3,669.6,856.8,670,855.2,670z"/>
</g>
</svg>
