<?xml version="1.0" encoding="utf-8"?>
<!-- Generator: Adobe Illustrator 25.0.0, SVG Export Plug-In . SVG Version: 6.00 Build 0)  -->
<svg version="1.1" id="Layer_1" xmlns="http://www.w3.org/2000/svg" xmlns:xlink="http://www.w3.org/1999/xlink" x="0px" y="0px"
	 viewBox="0 0 200 200" style="enable-background:new 0 0 200 200;" xml:space="preserve">
<style type="text/css">
	.st0{fill:#FFFFFF;}
</style>
<g>
	<path class="st0" d="M17.6,152c3,2.2,5.8,3.5,8.6,4.9c18.4,8.8,37.7,11.6,57.8,8.9c23.3-3.2,43-13.3,58.5-31.1
		c16.5-18.9,24.8-41,24.7-66.1c0-2,0.7-3.3,2.2-4.4c1.9-1.4,3.7-2.9,5.4-4.6c3.2-3.1,6.2-6.3,8.4-10.2c-5.6,1.8-11.2,3.7-17.5,4.2
		c0.9-1.6,2.1-2.1,3-2.9c4.1-3.2,7.1-7.3,9.3-11.9c0.4-0.8,1.2-1.7,0.5-2.4c-0.7-0.8-1.6,0.2-2.3,0.5c-4.8,2.4-9.8,4.2-15,5.6
		c-2.3,0.6-4,0.3-5.9-1.4c-10.4-9.4-26.3-11.2-39-4.6c-12.2,6.4-19.5,20-17.9,33.6c0.4,3.6,0.1,3.9-3.5,3.8c-0.5,0-1-0.1-1.6-0.1
		C68.3,70.7,47,59.9,30,40.8c-1.6-1.8-2.2-1.5-3.2,0.5c-6.5,13.9-2.7,30.7,9.2,40.4c0.6,0.5,1.6,0.8,1.5,2.2
		c-3.7-0.1-7.1-1-10.4-2.3c-1-0.4-2.2-1.5-3.2-0.7c-1.2,0.9-0.5,2.4-0.3,3.7c2.4,14,10.4,23.1,23.7,27.8c0.7,0.3,1.8,0.1,2.2,1.3
		c-3.3,0.6-6.6,1.3-9.9,0.9c-1.2-0.1-2.7-0.9-3.4,0.3c-0.7,1.1,0.4,2.3,0.9,3.4c5.2,10.2,13.5,16.3,24.7,18.5
		c1.6,0.3,3.1,0.5,5.5,0.9C52.2,148.9,36,153.3,17.6,152z"/>
</g>
</svg>
